<svg width="295.05" height="1000" version="1.1" xmlns="http://www.w3.org/2000/svg">
<path d="M50 666.666666666667 L50 671.666666666667 L245.05 671.666666666667 L245.05 666.666666666667 Z" />
<g style="fill: none"><title>ref;107;722</title>
<path d="M51.65 666.666666666667 A12.9 10.75 0 0 1  82.4 666.666666666667"  style="stroke:red;stroke-width:2.5" />
</g>
<g style="fill: none"><title>ref;127;905</title>
<path d="M52.65 666.666666666667 A16.975 14.1458333333333 0 0 1  91.55 666.666666666667"  style="stroke:green;stroke-width:2.5" />
</g>
<g style="fill: none"><title>ref;153;806</title>
<path d="M53.95 666.666666666667 A13.85 11.5416666666667 0 0 1  86.6 666.666666666667"  style="stroke:red;stroke-width:2.5" />
</g>
<g style="fill: none"><title>ref;174;905</title>
<path d="M55 666.666666666667 A15.8 13.1666666666667 0 0 1  91.55 666.666666666667"  style="stroke:green;stroke-width:2.5" />
</g>
<g style="fill: none"><title>ref;194;899</title>
<path d="M56 666.666666666667 A15.15 12.625 0 0 1  91.25 666.666666666667"  style="stroke:green;stroke-width:2.5" />
</g>
<g style="fill: none"><title>ref;225;915</title>
<path d="M57.55 666.666666666667 A14.775 12.3125 0 0 1  92.05 666.666666666667"  style="stroke:red;stroke-width:2.5" />
</g>
<g style="fill: none"><title>ref;249;1026</title>
<path d="M58.75 666.666666666667 A16.95 14.125 0 0 1  97.6 666.666666666667"  style="stroke:green;stroke-width:2.5" />
</g>
<g style="fill: none"><title>ref;270;916</title>
<path d="M59.8 666.666666666667 A13.675 11.3958333333333 0 0 1  92.1 666.666666666667"  style="stroke:red;stroke-width:2.5" />
</g>
<g style="fill: none"><title>ref;297;1066</title>
<path d="M61.15 666.666666666667 A16.75 13.9583333333333 0 0 1  99.6 666.666666666667"  style="stroke:green;stroke-width:2.5" />
</g>
<g style="fill: none"><title>ref;320;1037</title>
<path d="M62.3 666.666666666667 A15.45 12.875 0 0 1  98.15 666.666666666667"  style="stroke:green;stroke-width:2.5" />
</g>
<g style="fill: none"><title>ref;443;1171</title>
<path d="M68.45 666.666666666667 A15.725 13.1041666666667 0 0 1  104.85 666.666666666667"  style="stroke:green;stroke-width:2.5" />
</g>
<g style="fill: none"><title>ref;469;1141</title>
<path d="M69.75 666.666666666667 A14.325 11.9375 0 0 1  103.35 666.666666666667"  style="stroke:red;stroke-width:2.5" />
</g>
<g style="fill: none"><title>ref;490;1186</title>
<path d="M70.8 666.666666666667 A14.925 12.4375 0 0 1  105.6 666.666666666667"  style="stroke:red;stroke-width:2.5" />
</g>
<g style="fill: none"><title>ref;517;1233</title>
<path d="M72.15 666.666666666667 A15.425 12.8541666666667 0 0 1  107.95 666.666666666667"  style="stroke:green;stroke-width:2.5" />
</g>
<g style="fill: none"><title>ref;538;1204</title>
<path d="M73.2 666.666666666667 A14.175 11.8125 0 0 1  106.5 666.666666666667"  style="stroke:red;stroke-width:2.5" />
</g>
<g style="fill: none"><title>ref;574;1330</title>
<path d="M75 666.666666666667 A16.425 13.6875 0 0 1  112.8 666.666666666667"  style="stroke:green;stroke-width:2.5" />
</g>
<g style="fill: none"><title>ref;594;1218</title>
<path d="M76 666.666666666667 A13.125 10.9375 0 0 1  107.2 666.666666666667"  style="stroke:red;stroke-width:2.5" />
</g>
<g style="fill: none"><title>ref;614;1317</title>
<path d="M77 666.666666666667 A15.1 12.5833333333333 0 0 1  112.15 666.666666666667"  style="stroke:green;stroke-width:2.5" />
</g>
<g style="fill: none"><title>ref;640;1387</title>
<path d="M78.3 666.666666666667 A16.2 13.5 0 0 1  115.65 666.666666666667"  style="stroke:green;stroke-width:2.5" />
</g>
<g style="fill: none"><title>ref;660;1350</title>
<path d="M79.3 666.666666666667 A14.775 12.3125 0 0 1  113.8 666.666666666667"  style="stroke:red;stroke-width:2.5" />
</g>
<g style="fill: none"><title>ref;681;1453</title>
<path d="M80.35 666.666666666667 A16.825 14.0208333333333 0 0 1  118.95 666.666666666667"  style="stroke:green;stroke-width:2.5" />
</g>
<g style="fill: none"><title>ref;705;1337</title>
<path d="M81.55 666.666666666667 A13.325 11.1041666666667 0 0 1  113.15 666.666666666667"  style="stroke:red;stroke-width:2.5" />
</g>
<g style="fill: none"><title>ref;729;1404</title>
<path d="M82.75 666.666666666667 A14.4 12 0 0 1  116.5 666.666666666667"  style="stroke:red;stroke-width:2.5" />
</g>
<g style="fill: none"><title>ref;751;1425</title>
<path d="M83.85 666.666666666667 A14.375 11.9791666666667 0 0 1  117.55 666.666666666667"  style="stroke:red;stroke-width:2.5" />
</g>
<g style="fill: none"><title>ref;772;1409</title>
<path d="M84.9 666.666666666667 A13.45 11.2083333333333 0 0 1  116.75 666.666666666667"  style="stroke:red;stroke-width:2.5" />
</g>
<g style="fill: none"><title>ref;795;1550</title>
<path d="M86.05 666.666666666667 A16.4 13.6666666666667 0 0 1  123.8 666.666666666667"  style="stroke:green;stroke-width:2.5" />
</g>
<g style="fill: none"><title>ref;816;1577</title>
<path d="M87.1 666.666666666667 A16.55 13.7916666666667 0 0 1  125.15 666.666666666667"  style="stroke:green;stroke-width:2.5" />
</g>
<g style="fill: none"><title>ref;837;1585</title>
<path d="M88.15 666.666666666667 A16.225 13.5208333333333 0 0 1  125.55 666.666666666667"  style="stroke:green;stroke-width:2.5" />
</g>
<g style="fill: none"><title>ref;858;1562</title>
<path d="M89.2 666.666666666667 A15.125 12.6041666666667 0 0 1  124.4 666.666666666667"  style="stroke:green;stroke-width:2.5" />
</g>
<g style="fill: none"><title>ref;884;1587</title>
<path d="M90.5 666.666666666667 A15.1 12.5833333333333 0 0 1  125.65 666.666666666667"  style="stroke:green;stroke-width:2.5" />
</g>
<g style="fill: none"><title>ref;908;1630</title>
<path d="M91.7 666.666666666667 A15.575 12.9791666666667 0 0 1  127.8 666.666666666667"  style="stroke:green;stroke-width:2.5" />
</g>
<g style="fill: none"><title>ref;937;1582</title>
<path d="M93.15 666.666666666667 A13.65 11.375 0 0 1  125.4 666.666666666667"  style="stroke:red;stroke-width:2.5" />
</g>
<g style="fill: none"><title>ref;958;1705</title>
<path d="M94.2 666.666666666667 A16.2 13.5 0 0 1  131.55 666.666666666667"  style="stroke:green;stroke-width:2.5" />
</g>
<g style="fill: none"><title>ref;978;1690</title>
<path d="M95.2 666.666666666667 A15.325 12.7708333333333 0 0 1  130.8 666.666666666667"  style="stroke:green;stroke-width:2.5" />
</g>
<g style="fill: none"><title>ref;998;1738</title>
<path d="M96.2 666.666666666667 A16.025 13.3541666666667 0 0 1  133.2 666.666666666667"  style="stroke:green;stroke-width:2.5" />
</g>
<g style="fill: none"><title>ref;1022;1645</title>
<path d="M97.4 666.666666666667 A13.1 10.9166666666667 0 0 1  128.55 666.666666666667"  style="stroke:red;stroke-width:2.5" />
</g>
<g style="fill: none"><title>ref;1042;1735</title>
<path d="M98.4 666.666666666667 A14.85 12.375 0 0 1  133.05 666.666666666667"  style="stroke:red;stroke-width:2.5" />
</g>
<g style="fill: none"><title>ref;1074;1732</title>
<path d="M100 666.666666666667 A13.975 11.6458333333333 0 0 1  132.9 666.666666666667"  style="stroke:red;stroke-width:2.5" />
</g>
<g style="fill: none"><title>ref;1104;1867</title>
<path d="M101.5 666.666666666667 A16.6 13.8333333333333 0 0 1  139.65 666.666666666667"  style="stroke:green;stroke-width:2.5" />
</g>
<g style="fill: none"><title>ref;1124;1761</title>
<path d="M102.5 666.666666666667 A13.45 11.2083333333333 0 0 1  134.35 666.666666666667"  style="stroke:red;stroke-width:2.5" />
</g>
<g style="fill: none"><title>ref;1145;1830</title>
<path d="M103.55 666.666666666667 A14.65 12.2083333333333 0 0 1  137.8 666.666666666667"  style="stroke:red;stroke-width:2.5" />
</g>
<g style="fill: none"><title>ref;1165;1919</title>
<path d="M104.55 666.666666666667 A16.375 13.6458333333333 0 0 1  142.25 666.666666666667"  style="stroke:green;stroke-width:2.5" />
</g>
<g style="fill: none"><title>ref;1186;1835</title>
<path d="M105.6 666.666666666667 A13.75 11.4583333333333 0 0 1  138.05 666.666666666667"  style="stroke:red;stroke-width:2.5" />
</g>
<g style="fill: none"><title>ref;1215;1897</title>
<path d="M107.05 666.666666666667 A14.575 12.1458333333333 0 0 1  141.15 666.666666666667"  style="stroke:red;stroke-width:2.5" />
</g>
<g style="fill: none"><title>ref;1236;1932</title>
<path d="M108.1 666.666666666667 A14.925 12.4375 0 0 1  142.9 666.666666666667"  style="stroke:red;stroke-width:2.5" />
</g>
<g style="fill: none"><title>ref;1257;1915</title>
<path d="M109.15 666.666666666667 A13.975 11.6458333333333 0 0 1  142.05 666.666666666667"  style="stroke:red;stroke-width:2.5" />
</g>
<g style="fill: none"><title>ref;1278;1908</title>
<path d="M110.2 666.666666666667 A13.275 11.0625 0 0 1  141.7 666.666666666667"  style="stroke:red;stroke-width:2.5" />
</g>
<g style="fill: none"><title>ref;1299;1914</title>
<path d="M111.25 666.666666666667 A12.9 10.75 0 0 1  142 666.666666666667"  style="stroke:red;stroke-width:2.5" />
</g>
<g style="fill: none"><title>ref;1319;1995</title>
<path d="M112.25 666.666666666667 A14.425 12.0208333333333 0 0 1  146.05 666.666666666667"  style="stroke:red;stroke-width:2.5" />
</g>
<g style="fill: none"><title>ref;1339;2137</title>
<path d="M113.25 666.666666666667 A17.475 14.5625 0 0 1  153.15 666.666666666667"  style="stroke:green;stroke-width:2.5" />
</g>
<g style="fill: none"><title>ref;1362;1992</title>
<path d="M114.4 666.666666666667 A13.275 11.0625 0 0 1  145.9 666.666666666667"  style="stroke:red;stroke-width:2.5" />
</g>
<g style="fill: none"><title>ref;1384;2076</title>
<path d="M115.5 666.666666666667 A14.825 12.3541666666667 0 0 1  150.1 666.666666666667"  style="stroke:red;stroke-width:2.5" />
</g>
<g style="fill: none"><title>ref;1407;2120</title>
<path d="M116.65 666.666666666667 A15.35 12.7916666666667 0 0 1  152.3 666.666666666667"  style="stroke:green;stroke-width:2.5" />
</g>
<g style="fill: none"><title>ref;1429;2147</title>
<path d="M117.75 666.666666666667 A15.475 12.8958333333333 0 0 1  153.65 666.666666666667"  style="stroke:green;stroke-width:2.5" />
</g>
<g style="fill: none"><title>ref;1465;2126</title>
<path d="M119.55 666.666666666667 A14.05 11.7083333333333 0 0 1  152.6 666.666666666667"  style="stroke:red;stroke-width:2.5" />
</g>
<g style="fill: none"><title>ref;1494;2142</title>
<path d="M121 666.666666666667 A13.725 11.4375 0 0 1  153.4 666.666666666667"  style="stroke:red;stroke-width:2.5" />
</g>
<g style="fill: none"><title>ref;1528;2199</title>
<path d="M122.7 666.666666666667 A14.3 11.9166666666667 0 0 1  156.25 666.666666666667"  style="stroke:red;stroke-width:2.5" />
</g>
<g style="fill: none"><title>ref;1549;2195</title>
<path d="M123.75 666.666666666667 A13.675 11.3958333333333 0 0 1  156.05 666.666666666667"  style="stroke:red;stroke-width:2.5" />
</g>
<g style="fill: none"><title>ref;1571;2298</title>
<path d="M124.85 666.666666666667 A15.7 13.0833333333333 0 0 1  161.2 666.666666666667"  style="stroke:green;stroke-width:2.5" />
</g>
<g style="fill: none"><title>ref;1593;2288</title>
<path d="M125.95 666.666666666667 A14.9 12.4166666666667 0 0 1  160.7 666.666666666667"  style="stroke:red;stroke-width:2.5" />
</g>
<g style="fill: none"><title>ref;1617;2257</title>
<path d="M127.15 666.666666666667 A13.525 11.2708333333333 0 0 1  159.15 666.666666666667"  style="stroke:red;stroke-width:2.5" />
</g>
<g style="fill: none"><title>ref;1643;2400</title>
<path d="M128.45 666.666666666667 A16.45 13.7083333333333 0 0 1  166.3 666.666666666667"  style="stroke:green;stroke-width:2.5" />
</g>
<g style="fill: none"><title>ref;1669;2325</title>
<path d="M129.75 666.666666666667 A13.925 11.6041666666667 0 0 1  162.55 666.666666666667"  style="stroke:red;stroke-width:2.5" />
</g>
<g style="fill: none"><title>ref;1696;2344</title>
<path d="M131.1 666.666666666667 A13.725 11.4375 0 0 1  163.5 666.666666666667"  style="stroke:red;stroke-width:2.5" />
</g>
<g style="fill: none"><title>ref;1723;2399</title>
<path d="M132.45 666.666666666667 A14.425 12.0208333333333 0 0 1  166.25 666.666666666667"  style="stroke:red;stroke-width:2.5" />
</g>
<g style="fill: none"><title>ref;1746;2389</title>
<path d="M133.6 666.666666666667 A13.6 11.3333333333333 0 0 1  165.75 666.666666666667"  style="stroke:red;stroke-width:2.5" />
</g>
<g style="fill: none"><title>ref;1769;2488</title>
<path d="M134.75 666.666666666667 A15.5 12.9166666666667 0 0 1  170.7 666.666666666667"  style="stroke:green;stroke-width:2.5" />
</g>
<g style="fill: none"><title>ref;1789;2564</title>
<path d="M135.75 666.666666666667 A16.9 14.0833333333333 0 0 1  174.5 666.666666666667"  style="stroke:green;stroke-width:2.5" />
</g>
<g style="fill: none"><title>ref;1811;2478</title>
<path d="M136.85 666.666666666667 A14.2 11.8333333333333 0 0 1  170.2 666.666666666667"  style="stroke:red;stroke-width:2.5" />
</g>
<g style="fill: none"><title>ref;1832;2494</title>
<path d="M137.9 666.666666666667 A14.075 11.7291666666667 0 0 1  171 666.666666666667"  style="stroke:red;stroke-width:2.5" />
</g>
<g style="fill: none"><title>ref;1854;2534</title>
<path d="M139 666.666666666667 A14.525 12.1041666666667 0 0 1  173 666.666666666667"  style="stroke:red;stroke-width:2.5" />
</g>
<g style="fill: none"><title>ref;1882;2554</title>
<path d="M140.4 666.666666666667 A14.325 11.9375 0 0 1  174 666.666666666667"  style="stroke:red;stroke-width:2.5" />
</g>
<g style="fill: none"><title>ref;1902;2610</title>
<path d="M141.4 666.666666666667 A15.225 12.6875 0 0 1  176.8 666.666666666667"  style="stroke:green;stroke-width:2.5" />
</g>
<g style="fill: none"><title>ref;1922;2651</title>
<path d="M142.4 666.666666666667 A15.75 13.125 0 0 1  178.85 666.666666666667"  style="stroke:green;stroke-width:2.5" />
</g>
<g style="fill: none"><title>ref;1942;2734</title>
<path d="M143.4 666.666666666667 A17.325 14.4375 0 0 1  183 666.666666666667"  style="stroke:green;stroke-width:2.5" />
</g>
<g style="fill: none"><title>ref;1966;2660</title>
<path d="M144.6 666.666666666667 A14.875 12.3958333333333 0 0 1  179.3 666.666666666667"  style="stroke:red;stroke-width:2.5" />
</g>
<g style="fill: none"><title>ref;1987;2767</title>
<path d="M145.65 666.666666666667 A17.025 14.1875 0 0 1  184.65 666.666666666667"  style="stroke:green;stroke-width:2.5" />
</g>
<g style="fill: none"><title>ref;2014;2759</title>
<path d="M147 666.666666666667 A16.15 13.4583333333333 0 0 1  184.25 666.666666666667"  style="stroke:green;stroke-width:2.5" />
</g>
<g style="fill: none"><title>ref;2035;2717</title>
<path d="M148.05 666.666666666667 A14.575 12.1458333333333 0 0 1  182.15 666.666666666667"  style="stroke:red;stroke-width:2.5" />
</g>
<g style="fill: none"><title>ref;2072;2711</title>
<path d="M149.9 666.666666666667 A13.5 11.25 0 0 1  181.85 666.666666666667"  style="stroke:red;stroke-width:2.5" />
</g>
<g style="fill: none"><title>ref;2095;2769</title>
<path d="M151.05 666.666666666667 A14.375 11.9791666666667 0 0 1  184.75 666.666666666667"  style="stroke:red;stroke-width:2.5" />
</g>
<g style="fill: none"><title>ref;2116;2835</title>
<path d="M152.1 666.666666666667 A15.5 12.9166666666667 0 0 1  188.05 666.666666666667"  style="stroke:green;stroke-width:2.5" />
</g>
<g style="fill: none"><title>ref;2138;2870</title>
<path d="M153.2 666.666666666667 A15.825 13.1875 0 0 1  189.8 666.666666666667"  style="stroke:green;stroke-width:2.5" />
</g>
<g style="fill: none"><title>ref;2158;2839</title>
<path d="M154.2 666.666666666667 A14.55 12.125 0 0 1  188.25 666.666666666667"  style="stroke:red;stroke-width:2.5" />
</g>
<g style="fill: none"><title>ref;2182;2940</title>
<path d="M155.4 666.666666666667 A16.475 13.7291666666667 0 0 1  193.3 666.666666666667"  style="stroke:green;stroke-width:2.5" />
</g>
<g style="fill: none"><title>ref;2204;2895</title>
<path d="M156.5 666.666666666667 A14.8 12.3333333333333 0 0 1  191.05 666.666666666667"  style="stroke:red;stroke-width:2.5" />
</g>
<g style="fill: none"><title>ref;2235;2946</title>
<path d="M158.05 666.666666666667 A15.3 12.75 0 0 1  193.6 666.666666666667"  style="stroke:green;stroke-width:2.5" />
</g>
<g style="fill: none"><title>ref;2259;2940</title>
<path d="M159.25 666.666666666667 A14.55 12.125 0 0 1  193.3 666.666666666667"  style="stroke:red;stroke-width:2.5" />
</g>
<g style="fill: none"><title>ref;2280;3025</title>
<path d="M160.3 666.666666666667 A16.15 13.4583333333333 0 0 1  197.55 666.666666666667"  style="stroke:green;stroke-width:2.5" />
</g>
<g style="fill: none"><title>ref;2310;2985</title>
<path d="M161.8 666.666666666667 A14.4 12 0 0 1  195.55 666.666666666667"  style="stroke:red;stroke-width:2.5" />
</g>
<g style="fill: none"><title>ref;2333;3027</title>
<path d="M162.95 666.666666666667 A14.875 12.3958333333333 0 0 1  197.65 666.666666666667"  style="stroke:red;stroke-width:2.5" />
</g>
<g style="fill: none"><title>ref;2356;3063</title>
<path d="M164.1 666.666666666667 A15.2 12.6666666666667 0 0 1  199.45 666.666666666667"  style="stroke:green;stroke-width:2.5" />
</g>
<g style="fill: none"><title>ref;2379;3009</title>
<path d="M165.25 666.666666666667 A13.275 11.0625 0 0 1  196.75 666.666666666667"  style="stroke:red;stroke-width:2.5" />
</g>
<g style="fill: none"><title>ref;2401;3072</title>
<path d="M166.35 666.666666666667 A14.3 11.9166666666667 0 0 1  199.9 666.666666666667"  style="stroke:red;stroke-width:2.5" />
</g>
<g style="fill: none"><title>ref;2424;3071</title>
<path d="M167.5 666.666666666667 A13.7 11.4166666666667 0 0 1  199.85 666.666666666667"  style="stroke:red;stroke-width:2.5" />
</g>
<g style="fill: none"><title>ref;2445;3188</title>
<path d="M168.55 666.666666666667 A16.1 13.4166666666667 0 0 1  205.7 666.666666666667"  style="stroke:green;stroke-width:2.5" />
</g>
<g style="fill: none"><title>ref;2466;3217</title>
<path d="M169.6 666.666666666667 A16.3 13.5833333333333 0 0 1  207.15 666.666666666667"  style="stroke:green;stroke-width:2.5" />
</g>
<g style="fill: none"><title>ref;2498;3238</title>
<path d="M171.2 666.666666666667 A16.025 13.3541666666667 0 0 1  208.2 666.666666666667"  style="stroke:green;stroke-width:2.5" />
</g>
<g style="fill: none"><title>ref;2522;3271</title>
<path d="M172.4 666.666666666667 A16.25 13.5416666666667 0 0 1  209.85 666.666666666667"  style="stroke:green;stroke-width:2.5" />
</g>
<g style="fill: none"><title>ref;2543;3203</title>
<path d="M173.45 666.666666666667 A14.025 11.6875 0 0 1  206.45 666.666666666667"  style="stroke:red;stroke-width:2.5" />
</g>
<g style="fill: none"><title>ref;2568;3246</title>
<path d="M174.7 666.666666666667 A14.475 12.0625 0 0 1  208.6 666.666666666667"  style="stroke:red;stroke-width:2.5" />
</g>
<g style="fill: none"><title>ref;2588;3221</title>
<path d="M175.7 666.666666666667 A13.35 11.125 0 0 1  207.35 666.666666666667"  style="stroke:red;stroke-width:2.5" />
</g>
<g style="fill: none"><title>ref;2612;3294</title>
<path d="M176.9 666.666666666667 A14.575 12.1458333333333 0 0 1  211 666.666666666667"  style="stroke:red;stroke-width:2.5" />
</g>
<g style="fill: none"><title>ref;2647;3436</title>
<path d="M178.65 666.666666666667 A17.25 14.375 0 0 1  218.1 666.666666666667"  style="stroke:green;stroke-width:2.5" />
</g>
<g style="fill: none"><title>ref;2668;3443</title>
<path d="M179.7 666.666666666667 A16.9 14.0833333333333 0 0 1  218.45 666.666666666667"  style="stroke:green;stroke-width:2.5" />
</g>
<g style="fill: none"><title>ref;2721;3500</title>
<path d="M182.35 666.666666666667 A17 14.1666666666667 0 0 1  221.3 666.666666666667"  style="stroke:green;stroke-width:2.5" />
</g>
<g style="fill: none"><title>ref;2745;3445</title>
<path d="M183.55 666.666666666667 A15.025 12.5208333333333 0 0 1  218.55 666.666666666667"  style="stroke:green;stroke-width:2.5" />
</g>
<g style="fill: none"><title>ref;2767;3472</title>
<path d="M184.65 666.666666666667 A15.15 12.625 0 0 1  219.9 666.666666666667"  style="stroke:green;stroke-width:2.5" />
</g>
<g style="fill: none"><title>ref;2789;3542</title>
<path d="M185.75 666.666666666667 A16.35 13.625 0 0 1  223.4 666.666666666667"  style="stroke:green;stroke-width:2.5" />
</g>
<g style="fill: none"><title>ref;2811;3467</title>
<path d="M186.85 666.666666666667 A13.925 11.6041666666667 0 0 1  219.65 666.666666666667"  style="stroke:red;stroke-width:2.5" />
</g>
<g style="fill: none"><title>ref;2842;3526</title>
<path d="M188.4 666.666666666667 A14.625 12.1875 0 0 1  222.6 666.666666666667"  style="stroke:red;stroke-width:2.5" />
</g>
<g style="fill: none"><title>ref;2862;3485</title>
<path d="M189.4 666.666666666667 A13.1 10.9166666666667 0 0 1  220.55 666.666666666667"  style="stroke:red;stroke-width:2.5" />
</g>
<g style="fill: none"><title>ref;2891;3587</title>
<path d="M190.85 666.666666666667 A14.925 12.4375 0 0 1  225.65 666.666666666667"  style="stroke:red;stroke-width:2.5" />
</g>
<g style="fill: none"><title>ref;2912;3667</title>
<path d="M191.9 666.666666666667 A16.4 13.6666666666667 0 0 1  229.65 666.666666666667"  style="stroke:green;stroke-width:2.5" />
</g>
<g style="fill: none"><title>ref;2936;3602</title>
<path d="M193.1 666.666666666667 A14.175 11.8125 0 0 1  226.4 666.666666666667"  style="stroke:red;stroke-width:2.5" />
</g>
<g style="fill: none"><title>ref;2957;3697</title>
<path d="M194.15 666.666666666667 A16.025 13.3541666666667 0 0 1  231.15 666.666666666667"  style="stroke:green;stroke-width:2.5" />
</g>
<g style="fill: none"><title>ref;2986;3697</title>
<path d="M195.6 666.666666666667 A15.3 12.75 0 0 1  231.15 666.666666666667"  style="stroke:green;stroke-width:2.5" />
</g>
<g style="fill: none"><title>ref;3007;3650</title>
<path d="M196.65 666.666666666667 A13.6 11.3333333333333 0 0 1  228.8 666.666666666667"  style="stroke:red;stroke-width:2.5" />
</g>
<g style="fill: none"><title>ref;3028;3743</title>
<path d="M197.7 666.666666666667 A15.4 12.8333333333333 0 0 1  233.45 666.666666666667"  style="stroke:green;stroke-width:2.5" />
</g>
<g style="fill: none"><title>ref;3055;3740</title>
<path d="M199.05 666.666666666667 A14.65 12.2083333333333 0 0 1  233.3 666.666666666667"  style="stroke:red;stroke-width:2.5" />
</g>
<g style="fill: none"><title>ref;3077;3874</title>
<path d="M200.15 666.666666666667 A17.45 14.5416666666667 0 0 1  240 666.666666666667"  style="stroke:green;stroke-width:2.5" />
</g>
<g style="fill: none"><title>ref;3110;3864</title>
<path d="M201.8 666.666666666667 A16.375 13.6458333333333 0 0 1  239.5 666.666666666667"  style="stroke:green;stroke-width:2.5" />
</g>
<g style="fill: none"><title>ref;3133;3873</title>
<path d="M202.95 666.666666666667 A16.025 13.3541666666667 0 0 1  239.95 666.666666666667"  style="stroke:green;stroke-width:2.5" />
</g>
<g style="fill: none"><title>ref;3154;3835</title>
<path d="M204 666.666666666667 A14.55 12.125 0 0 1  238.05 666.666666666667"  style="stroke:red;stroke-width:2.5" />
</g>
<g style="fill: none"><title>ref;3179;3876</title>
<path d="M205.25 666.666666666667 A14.95 12.4583333333333 0 0 1  240.1 666.666666666667"  style="stroke:red;stroke-width:2.5" />
</g>
<g style="fill: none"><title>ref;3199;3822</title>
<path d="M206.25 666.666666666667 A13.1 10.9166666666667 0 0 1  237.4 666.666666666667"  style="stroke:red;stroke-width:2.5" />
</g>
<g style="fill: none"><title>ref;3257;3894</title>
<path d="M209.15 666.666666666667 A13.45 11.2083333333333 0 0 1  241 666.666666666667"  style="stroke:red;stroke-width:2.5" />
</g>
</svg>
